<mxfile host="app.diagrams.net" agent="Mozilla/5.0 (Windows NT 10.0; Win64; x64) AppleWebKit/537.36 (KHTML, like Gecko) Chrome/129.0.0.0 Safari/537.36" version="24.7.16">
  <diagram name="Page-1" id="_pNjMU5XVgd68DjMM0e_">
    <mxGraphModel dx="1313" dy="705" grid="1" gridSize="10" guides="1" tooltips="1" connect="1" arrows="1" fold="1" page="1" pageScale="1" pageWidth="850" pageHeight="1100" math="0" shadow="0">
      <root>
        <mxCell id="0" />
        <mxCell id="1" parent="0" />
        <mxCell id="UrR3aW9NItK5d_8ZwAaM-94" value="" style="rounded=0;whiteSpace=wrap;html=1;fillColor=none;" vertex="1" parent="1">
          <mxGeometry x="340" y="60" width="510" height="710" as="geometry" />
        </mxCell>
        <mxCell id="UrR3aW9NItK5d_8ZwAaM-95" value="" style="rounded=0;whiteSpace=wrap;html=1;fillColor=none;" vertex="1" parent="1">
          <mxGeometry x="340" y="789" width="510" height="620" as="geometry" />
        </mxCell>
        <mxCell id="UrR3aW9NItK5d_8ZwAaM-96" value="" style="rounded=0;whiteSpace=wrap;html=1;fillColor=none;" vertex="1" parent="1">
          <mxGeometry x="340" y="1440" width="510" height="500" as="geometry" />
        </mxCell>
        <mxCell id="UrR3aW9NItK5d_8ZwAaM-1" value="Aufgabe 1" style="text;html=1;align=center;verticalAlign=middle;resizable=0;points=[];autosize=1;strokeColor=none;fillColor=none;" vertex="1" parent="1">
          <mxGeometry x="10" y="10" width="80" height="30" as="geometry" />
        </mxCell>
        <mxCell id="UrR3aW9NItK5d_8ZwAaM-38" style="edgeStyle=orthogonalEdgeStyle;rounded=0;orthogonalLoop=1;jettySize=auto;html=1;entryX=0;entryY=0.5;entryDx=0;entryDy=0;" edge="1" parent="1" source="UrR3aW9NItK5d_8ZwAaM-2" target="UrR3aW9NItK5d_8ZwAaM-21">
          <mxGeometry relative="1" as="geometry" />
        </mxCell>
        <mxCell id="UrR3aW9NItK5d_8ZwAaM-39" style="edgeStyle=orthogonalEdgeStyle;rounded=0;orthogonalLoop=1;jettySize=auto;html=1;entryX=0;entryY=0.5;entryDx=0;entryDy=0;" edge="1" parent="1" source="UrR3aW9NItK5d_8ZwAaM-2" target="UrR3aW9NItK5d_8ZwAaM-20">
          <mxGeometry relative="1" as="geometry" />
        </mxCell>
        <mxCell id="UrR3aW9NItK5d_8ZwAaM-40" style="edgeStyle=orthogonalEdgeStyle;rounded=0;orthogonalLoop=1;jettySize=auto;html=1;" edge="1" parent="1" source="UrR3aW9NItK5d_8ZwAaM-2" target="UrR3aW9NItK5d_8ZwAaM-28">
          <mxGeometry relative="1" as="geometry">
            <Array as="points">
              <mxPoint x="255" y="330" />
              <mxPoint x="255" y="550" />
            </Array>
          </mxGeometry>
        </mxCell>
        <mxCell id="UrR3aW9NItK5d_8ZwAaM-47" style="edgeStyle=orthogonalEdgeStyle;rounded=0;orthogonalLoop=1;jettySize=auto;html=1;" edge="1" parent="1" source="UrR3aW9NItK5d_8ZwAaM-2" target="UrR3aW9NItK5d_8ZwAaM-11">
          <mxGeometry relative="1" as="geometry">
            <Array as="points">
              <mxPoint x="255" y="330" />
              <mxPoint x="255" y="130" />
            </Array>
          </mxGeometry>
        </mxCell>
        <mxCell id="UrR3aW9NItK5d_8ZwAaM-52" style="edgeStyle=orthogonalEdgeStyle;rounded=0;orthogonalLoop=1;jettySize=auto;html=1;entryX=0;entryY=0.5;entryDx=0;entryDy=0;" edge="1" parent="1" source="UrR3aW9NItK5d_8ZwAaM-2" target="UrR3aW9NItK5d_8ZwAaM-43">
          <mxGeometry relative="1" as="geometry" />
        </mxCell>
        <mxCell id="UrR3aW9NItK5d_8ZwAaM-2" value="Vertriebsmitarbeiter" style="shape=umlActor;verticalLabelPosition=bottom;verticalAlign=top;html=1;outlineConnect=0;" vertex="1" parent="1">
          <mxGeometry x="50" y="300" width="30" height="60" as="geometry" />
        </mxCell>
        <mxCell id="UrR3aW9NItK5d_8ZwAaM-46" style="edgeStyle=orthogonalEdgeStyle;rounded=0;orthogonalLoop=1;jettySize=auto;html=1;" edge="1" parent="1" source="UrR3aW9NItK5d_8ZwAaM-3" target="UrR3aW9NItK5d_8ZwAaM-2">
          <mxGeometry relative="1" as="geometry" />
        </mxCell>
        <mxCell id="UrR3aW9NItK5d_8ZwAaM-53" style="edgeStyle=orthogonalEdgeStyle;rounded=0;orthogonalLoop=1;jettySize=auto;html=1;entryX=0;entryY=0.5;entryDx=0;entryDy=0;" edge="1" parent="1" source="UrR3aW9NItK5d_8ZwAaM-3" target="UrR3aW9NItK5d_8ZwAaM-30">
          <mxGeometry relative="1" as="geometry">
            <Array as="points">
              <mxPoint x="160" y="450" />
              <mxPoint x="160" y="720" />
            </Array>
          </mxGeometry>
        </mxCell>
        <mxCell id="UrR3aW9NItK5d_8ZwAaM-3" value="Teamleiter" style="shape=umlActor;verticalLabelPosition=bottom;verticalAlign=top;html=1;outlineConnect=0;" vertex="1" parent="1">
          <mxGeometry x="50" y="420" width="30" height="60" as="geometry" />
        </mxCell>
        <mxCell id="UrR3aW9NItK5d_8ZwAaM-11" value="Dokumentieren" style="ellipse;whiteSpace=wrap;html=1;" vertex="1" parent="1">
          <mxGeometry x="430" y="80" width="120" height="80" as="geometry" />
        </mxCell>
        <mxCell id="UrR3aW9NItK5d_8ZwAaM-23" style="edgeStyle=orthogonalEdgeStyle;rounded=0;orthogonalLoop=1;jettySize=auto;html=1;" edge="1" parent="1" source="UrR3aW9NItK5d_8ZwAaM-20" target="UrR3aW9NItK5d_8ZwAaM-22">
          <mxGeometry relative="1" as="geometry">
            <Array as="points">
              <mxPoint x="570" y="230" />
              <mxPoint x="570" y="280" />
            </Array>
          </mxGeometry>
        </mxCell>
        <mxCell id="UrR3aW9NItK5d_8ZwAaM-20" value="Kundenliste auslesen" style="ellipse;whiteSpace=wrap;html=1;" vertex="1" parent="1">
          <mxGeometry x="430" y="190" width="120" height="80" as="geometry" />
        </mxCell>
        <mxCell id="UrR3aW9NItK5d_8ZwAaM-24" style="edgeStyle=orthogonalEdgeStyle;rounded=0;orthogonalLoop=1;jettySize=auto;html=1;" edge="1" parent="1" source="UrR3aW9NItK5d_8ZwAaM-21" target="UrR3aW9NItK5d_8ZwAaM-22">
          <mxGeometry relative="1" as="geometry">
            <Array as="points">
              <mxPoint x="570" y="330" />
              <mxPoint x="570" y="280" />
            </Array>
          </mxGeometry>
        </mxCell>
        <mxCell id="UrR3aW9NItK5d_8ZwAaM-25" value="Include" style="edgeLabel;html=1;align=center;verticalAlign=middle;resizable=0;points=[];" vertex="1" connectable="0" parent="UrR3aW9NItK5d_8ZwAaM-24">
          <mxGeometry x="0.3171" y="1" relative="1" as="geometry">
            <mxPoint x="6" as="offset" />
          </mxGeometry>
        </mxCell>
        <mxCell id="UrR3aW9NItK5d_8ZwAaM-21" value="Daten eines Kunden auslesen" style="ellipse;whiteSpace=wrap;html=1;" vertex="1" parent="1">
          <mxGeometry x="430" y="290" width="120" height="80" as="geometry" />
        </mxCell>
        <mxCell id="UrR3aW9NItK5d_8ZwAaM-22" value="Kundendaten Laden" style="ellipse;whiteSpace=wrap;html=1;" vertex="1" parent="1">
          <mxGeometry x="640" y="240" width="120" height="80" as="geometry" />
        </mxCell>
        <mxCell id="UrR3aW9NItK5d_8ZwAaM-28" value="Kundendaten Löschen&lt;div&gt;&lt;br&gt;&lt;/div&gt;&lt;div&gt;&lt;b&gt;extension point&lt;/b&gt;&lt;/div&gt;&lt;div&gt;Löschung freigeben&lt;/div&gt;" style="ellipse;whiteSpace=wrap;html=1;" vertex="1" parent="1">
          <mxGeometry x="430" y="480" width="120" height="140" as="geometry" />
        </mxCell>
        <mxCell id="UrR3aW9NItK5d_8ZwAaM-34" style="edgeStyle=orthogonalEdgeStyle;rounded=0;orthogonalLoop=1;jettySize=auto;html=1;entryX=0.5;entryY=1;entryDx=0;entryDy=0;" edge="1" parent="1" source="UrR3aW9NItK5d_8ZwAaM-30" target="UrR3aW9NItK5d_8ZwAaM-28">
          <mxGeometry relative="1" as="geometry" />
        </mxCell>
        <mxCell id="UrR3aW9NItK5d_8ZwAaM-35" value="extend" style="edgeLabel;html=1;align=center;verticalAlign=middle;resizable=0;points=[];" vertex="1" connectable="0" parent="UrR3aW9NItK5d_8ZwAaM-34">
          <mxGeometry x="0.0167" y="1" relative="1" as="geometry">
            <mxPoint as="offset" />
          </mxGeometry>
        </mxCell>
        <mxCell id="UrR3aW9NItK5d_8ZwAaM-30" value="Löschung freigeben" style="ellipse;whiteSpace=wrap;html=1;" vertex="1" parent="1">
          <mxGeometry x="430" y="680" width="120" height="80" as="geometry" />
        </mxCell>
        <mxCell id="UrR3aW9NItK5d_8ZwAaM-33" value="&lt;font style=&quot;font-size: 10px;&quot;&gt;&lt;font style=&quot;&quot;&gt;condition: {Daten eines Großkunden}&lt;br&gt;extension point:&amp;nbsp;&lt;/font&gt;Löschung freigeben&lt;/font&gt;" style="rounded=0;whiteSpace=wrap;html=1;" vertex="1" parent="1">
          <mxGeometry x="510" y="620" width="190" height="50" as="geometry" />
        </mxCell>
        <mxCell id="UrR3aW9NItK5d_8ZwAaM-43" value="Auswertungen eines Kundenstammes vornehmen" style="ellipse;whiteSpace=wrap;html=1;" vertex="1" parent="1">
          <mxGeometry x="430" y="390" width="120" height="80" as="geometry" />
        </mxCell>
        <mxCell id="UrR3aW9NItK5d_8ZwAaM-49" style="edgeStyle=orthogonalEdgeStyle;rounded=0;orthogonalLoop=1;jettySize=auto;html=1;exitX=0.5;exitY=0.5;exitDx=0;exitDy=0;exitPerimeter=0;" edge="1" parent="1" source="UrR3aW9NItK5d_8ZwAaM-48" target="UrR3aW9NItK5d_8ZwAaM-11">
          <mxGeometry relative="1" as="geometry">
            <mxPoint x="150" y="150" as="sourcePoint" />
            <Array as="points">
              <mxPoint x="65" y="110" />
            </Array>
          </mxGeometry>
        </mxCell>
        <mxCell id="UrR3aW9NItK5d_8ZwAaM-48" value="Kunde" style="shape=umlActor;verticalLabelPosition=bottom;verticalAlign=top;html=1;outlineConnect=0;" vertex="1" parent="1">
          <mxGeometry x="50" y="90" width="30" height="60" as="geometry" />
        </mxCell>
        <mxCell id="UrR3aW9NItK5d_8ZwAaM-50" value="Aufgabe 2" style="text;html=1;align=center;verticalAlign=middle;resizable=0;points=[];autosize=1;strokeColor=none;fillColor=none;" vertex="1" parent="1">
          <mxGeometry y="800" width="80" height="30" as="geometry" />
        </mxCell>
        <mxCell id="UrR3aW9NItK5d_8ZwAaM-70" style="edgeStyle=orthogonalEdgeStyle;rounded=0;orthogonalLoop=1;jettySize=auto;html=1;entryX=0;entryY=0.5;entryDx=0;entryDy=0;" edge="1" parent="1" source="UrR3aW9NItK5d_8ZwAaM-51" target="UrR3aW9NItK5d_8ZwAaM-55">
          <mxGeometry relative="1" as="geometry" />
        </mxCell>
        <mxCell id="UrR3aW9NItK5d_8ZwAaM-71" style="edgeStyle=orthogonalEdgeStyle;rounded=0;orthogonalLoop=1;jettySize=auto;html=1;entryX=0;entryY=0.5;entryDx=0;entryDy=0;" edge="1" parent="1" source="UrR3aW9NItK5d_8ZwAaM-51" target="UrR3aW9NItK5d_8ZwAaM-54">
          <mxGeometry relative="1" as="geometry" />
        </mxCell>
        <mxCell id="UrR3aW9NItK5d_8ZwAaM-72" style="edgeStyle=orthogonalEdgeStyle;rounded=0;orthogonalLoop=1;jettySize=auto;html=1;entryX=0;entryY=0.5;entryDx=0;entryDy=0;" edge="1" parent="1" source="UrR3aW9NItK5d_8ZwAaM-51" target="UrR3aW9NItK5d_8ZwAaM-56">
          <mxGeometry relative="1" as="geometry" />
        </mxCell>
        <mxCell id="UrR3aW9NItK5d_8ZwAaM-76" style="edgeStyle=orthogonalEdgeStyle;rounded=0;orthogonalLoop=1;jettySize=auto;html=1;entryX=0;entryY=0.5;entryDx=0;entryDy=0;" edge="1" parent="1" source="UrR3aW9NItK5d_8ZwAaM-51" target="UrR3aW9NItK5d_8ZwAaM-75">
          <mxGeometry relative="1" as="geometry" />
        </mxCell>
        <mxCell id="UrR3aW9NItK5d_8ZwAaM-77" style="edgeStyle=orthogonalEdgeStyle;rounded=0;orthogonalLoop=1;jettySize=auto;html=1;entryX=0;entryY=0.5;entryDx=0;entryDy=0;" edge="1" parent="1" source="UrR3aW9NItK5d_8ZwAaM-51" target="UrR3aW9NItK5d_8ZwAaM-64">
          <mxGeometry relative="1" as="geometry" />
        </mxCell>
        <mxCell id="UrR3aW9NItK5d_8ZwAaM-51" value="Benutzer" style="shape=umlActor;verticalLabelPosition=bottom;verticalAlign=top;html=1;outlineConnect=0;" vertex="1" parent="1">
          <mxGeometry x="35" y="894" width="30" height="60" as="geometry" />
        </mxCell>
        <mxCell id="UrR3aW9NItK5d_8ZwAaM-60" style="edgeStyle=orthogonalEdgeStyle;rounded=0;orthogonalLoop=1;jettySize=auto;html=1;entryX=0;entryY=0.5;entryDx=0;entryDy=0;" edge="1" parent="1" source="UrR3aW9NItK5d_8ZwAaM-54" target="UrR3aW9NItK5d_8ZwAaM-58">
          <mxGeometry relative="1" as="geometry">
            <Array as="points">
              <mxPoint x="580" y="835" />
              <mxPoint x="580" y="925" />
            </Array>
          </mxGeometry>
        </mxCell>
        <mxCell id="UrR3aW9NItK5d_8ZwAaM-54" value="Email Verfassen" style="ellipse;whiteSpace=wrap;html=1;" vertex="1" parent="1">
          <mxGeometry x="430" y="795" width="120" height="80" as="geometry" />
        </mxCell>
        <mxCell id="UrR3aW9NItK5d_8ZwAaM-59" style="edgeStyle=orthogonalEdgeStyle;rounded=0;orthogonalLoop=1;jettySize=auto;html=1;entryX=0;entryY=0.5;entryDx=0;entryDy=0;" edge="1" parent="1" source="UrR3aW9NItK5d_8ZwAaM-55" target="UrR3aW9NItK5d_8ZwAaM-58">
          <mxGeometry relative="1" as="geometry" />
        </mxCell>
        <mxCell id="UrR3aW9NItK5d_8ZwAaM-55" value="Email Lesen" style="ellipse;whiteSpace=wrap;html=1;" vertex="1" parent="1">
          <mxGeometry x="430" y="885" width="120" height="80" as="geometry" />
        </mxCell>
        <mxCell id="UrR3aW9NItK5d_8ZwAaM-62" style="edgeStyle=orthogonalEdgeStyle;rounded=0;orthogonalLoop=1;jettySize=auto;html=1;entryX=0;entryY=0.5;entryDx=0;entryDy=0;" edge="1" parent="1" source="UrR3aW9NItK5d_8ZwAaM-56" target="UrR3aW9NItK5d_8ZwAaM-58">
          <mxGeometry relative="1" as="geometry">
            <Array as="points">
              <mxPoint x="580" y="1027" />
              <mxPoint x="580" y="925" />
            </Array>
          </mxGeometry>
        </mxCell>
        <mxCell id="UrR3aW9NItK5d_8ZwAaM-63" value="include" style="edgeLabel;html=1;align=center;verticalAlign=middle;resizable=0;points=[];" vertex="1" connectable="0" parent="UrR3aW9NItK5d_8ZwAaM-62">
          <mxGeometry x="0.5003" y="2" relative="1" as="geometry">
            <mxPoint as="offset" />
          </mxGeometry>
        </mxCell>
        <mxCell id="UrR3aW9NItK5d_8ZwAaM-56" value="Email Löschen&lt;div&gt;&lt;br&gt;&lt;/div&gt;&lt;div&gt;&lt;b&gt;extension point&lt;/b&gt;&lt;/div&gt;&lt;div&gt;Alle Emails löschen&lt;/div&gt;" style="ellipse;whiteSpace=wrap;html=1;" vertex="1" parent="1">
          <mxGeometry x="430" y="980" width="120" height="94" as="geometry" />
        </mxCell>
        <mxCell id="UrR3aW9NItK5d_8ZwAaM-58" value="anmelden" style="ellipse;whiteSpace=wrap;html=1;" vertex="1" parent="1">
          <mxGeometry x="660" y="885" width="120" height="80" as="geometry" />
        </mxCell>
        <mxCell id="UrR3aW9NItK5d_8ZwAaM-65" style="edgeStyle=orthogonalEdgeStyle;rounded=0;orthogonalLoop=1;jettySize=auto;html=1;entryX=0.5;entryY=1;entryDx=0;entryDy=0;" edge="1" parent="1" source="UrR3aW9NItK5d_8ZwAaM-64" target="UrR3aW9NItK5d_8ZwAaM-56">
          <mxGeometry relative="1" as="geometry" />
        </mxCell>
        <mxCell id="UrR3aW9NItK5d_8ZwAaM-66" value="extend" style="edgeLabel;html=1;align=center;verticalAlign=middle;resizable=0;points=[];" vertex="1" connectable="0" parent="UrR3aW9NItK5d_8ZwAaM-65">
          <mxGeometry x="-0.0444" y="-1" relative="1" as="geometry">
            <mxPoint as="offset" />
          </mxGeometry>
        </mxCell>
        <mxCell id="UrR3aW9NItK5d_8ZwAaM-64" value="Alle Emails Löschen" style="ellipse;whiteSpace=wrap;html=1;" vertex="1" parent="1">
          <mxGeometry x="430" y="1130" width="120" height="80" as="geometry" />
        </mxCell>
        <mxCell id="UrR3aW9NItK5d_8ZwAaM-67" value="&lt;span style=&quot;font-size: 10px;&quot;&gt;condition: {Löschung aller Emails gewünscht}&lt;/span&gt;&lt;div&gt;&lt;span style=&quot;font-size: 10px;&quot;&gt;extension point: Alle Emails Löschen&lt;/span&gt;&lt;/div&gt;" style="rounded=0;whiteSpace=wrap;html=1;" vertex="1" parent="1">
          <mxGeometry x="520" y="1074" width="190" height="50" as="geometry" />
        </mxCell>
        <mxCell id="UrR3aW9NItK5d_8ZwAaM-69" style="edgeStyle=orthogonalEdgeStyle;rounded=0;orthogonalLoop=1;jettySize=auto;html=1;" edge="1" parent="1" source="UrR3aW9NItK5d_8ZwAaM-68" target="UrR3aW9NItK5d_8ZwAaM-51">
          <mxGeometry relative="1" as="geometry" />
        </mxCell>
        <mxCell id="UrR3aW9NItK5d_8ZwAaM-74" style="edgeStyle=orthogonalEdgeStyle;rounded=0;orthogonalLoop=1;jettySize=auto;html=1;entryX=0;entryY=0.5;entryDx=0;entryDy=0;" edge="1" parent="1" source="UrR3aW9NItK5d_8ZwAaM-68" target="UrR3aW9NItK5d_8ZwAaM-73">
          <mxGeometry relative="1" as="geometry">
            <Array as="points">
              <mxPoint x="50" y="1350" />
            </Array>
          </mxGeometry>
        </mxCell>
        <mxCell id="UrR3aW9NItK5d_8ZwAaM-68" value="Administrator" style="shape=umlActor;verticalLabelPosition=bottom;verticalAlign=top;html=1;outlineConnect=0;" vertex="1" parent="1">
          <mxGeometry x="35" y="1014" width="30" height="60" as="geometry" />
        </mxCell>
        <mxCell id="UrR3aW9NItK5d_8ZwAaM-73" value="Passwort eines Users Zurücksetzen" style="ellipse;whiteSpace=wrap;html=1;" vertex="1" parent="1">
          <mxGeometry x="430" y="1310" width="120" height="80" as="geometry" />
        </mxCell>
        <mxCell id="UrR3aW9NItK5d_8ZwAaM-75" value="Passwort zurücksetzen verlangen" style="ellipse;whiteSpace=wrap;html=1;" vertex="1" parent="1">
          <mxGeometry x="430" y="1220" width="120" height="80" as="geometry" />
        </mxCell>
        <mxCell id="UrR3aW9NItK5d_8ZwAaM-78" value="Aufgabe 3" style="text;html=1;align=center;verticalAlign=middle;resizable=0;points=[];autosize=1;strokeColor=none;fillColor=none;" vertex="1" parent="1">
          <mxGeometry y="1428" width="80" height="30" as="geometry" />
        </mxCell>
        <mxCell id="UrR3aW9NItK5d_8ZwAaM-106" style="edgeStyle=orthogonalEdgeStyle;rounded=0;orthogonalLoop=1;jettySize=auto;html=1;entryX=0;entryY=0.5;entryDx=0;entryDy=0;" edge="1" parent="1" source="UrR3aW9NItK5d_8ZwAaM-79" target="UrR3aW9NItK5d_8ZwAaM-81">
          <mxGeometry relative="1" as="geometry">
            <Array as="points">
              <mxPoint x="160" y="1520" />
              <mxPoint x="160" y="1520" />
            </Array>
          </mxGeometry>
        </mxCell>
        <mxCell id="UrR3aW9NItK5d_8ZwAaM-107" style="edgeStyle=orthogonalEdgeStyle;rounded=0;orthogonalLoop=1;jettySize=auto;html=1;" edge="1" parent="1" source="UrR3aW9NItK5d_8ZwAaM-79" target="UrR3aW9NItK5d_8ZwAaM-83">
          <mxGeometry relative="1" as="geometry">
            <mxPoint x="620" y="1720" as="targetPoint" />
            <Array as="points">
              <mxPoint x="260" y="1520" />
              <mxPoint x="260" y="1700" />
            </Array>
          </mxGeometry>
        </mxCell>
        <mxCell id="UrR3aW9NItK5d_8ZwAaM-79" value="Mitarbeiter der&lt;div&gt;&lt;span style=&quot;background-color: initial;&quot;&gt;Warenanahme&lt;/span&gt;&lt;/div&gt;" style="shape=umlActor;verticalLabelPosition=bottom;verticalAlign=top;html=1;outlineConnect=0;" vertex="1" parent="1">
          <mxGeometry x="40" y="1490" width="30" height="60" as="geometry" />
        </mxCell>
        <mxCell id="UrR3aW9NItK5d_8ZwAaM-108" style="edgeStyle=orthogonalEdgeStyle;rounded=0;orthogonalLoop=1;jettySize=auto;html=1;" edge="1" parent="1" source="UrR3aW9NItK5d_8ZwAaM-81">
          <mxGeometry relative="1" as="geometry">
            <mxPoint x="610" y="1520" as="targetPoint" />
          </mxGeometry>
        </mxCell>
        <mxCell id="UrR3aW9NItK5d_8ZwAaM-109" value="include" style="edgeLabel;html=1;align=center;verticalAlign=middle;resizable=0;points=[];" vertex="1" connectable="0" parent="UrR3aW9NItK5d_8ZwAaM-108">
          <mxGeometry x="-0.4399" y="2" relative="1" as="geometry">
            <mxPoint x="7" y="1" as="offset" />
          </mxGeometry>
        </mxCell>
        <mxCell id="UrR3aW9NItK5d_8ZwAaM-81" value="ungeplanten Zugang buchen" style="ellipse;whiteSpace=wrap;html=1;" vertex="1" parent="1">
          <mxGeometry x="440" y="1480" width="120" height="80" as="geometry" />
        </mxCell>
        <mxCell id="UrR3aW9NItK5d_8ZwAaM-82" value="automatisch nach Lagerplatz suchen&lt;div&gt;&lt;br&gt;&lt;/div&gt;&lt;div&gt;&lt;b&gt;extension point&lt;/b&gt;&amp;nbsp;&lt;/div&gt;&lt;div&gt;manuell nach Lagerplatz suchen&lt;/div&gt;" style="ellipse;whiteSpace=wrap;html=1;" vertex="1" parent="1">
          <mxGeometry x="610" y="1450" width="120" height="150" as="geometry" />
        </mxCell>
        <mxCell id="UrR3aW9NItK5d_8ZwAaM-88" style="edgeStyle=orthogonalEdgeStyle;rounded=0;orthogonalLoop=1;jettySize=auto;html=1;entryX=0.5;entryY=1;entryDx=0;entryDy=0;" edge="1" parent="1" source="UrR3aW9NItK5d_8ZwAaM-83" target="UrR3aW9NItK5d_8ZwAaM-82">
          <mxGeometry relative="1" as="geometry" />
        </mxCell>
        <mxCell id="UrR3aW9NItK5d_8ZwAaM-91" value="extend" style="edgeLabel;html=1;align=center;verticalAlign=middle;resizable=0;points=[];" vertex="1" connectable="0" parent="UrR3aW9NItK5d_8ZwAaM-88">
          <mxGeometry x="-0.5181" relative="1" as="geometry">
            <mxPoint as="offset" />
          </mxGeometry>
        </mxCell>
        <mxCell id="UrR3aW9NItK5d_8ZwAaM-83" value="manuell nach Lagerplatz suchen" style="ellipse;whiteSpace=wrap;html=1;rotation=0;" vertex="1" parent="1">
          <mxGeometry x="610" y="1680" width="120" height="80" as="geometry" />
        </mxCell>
        <mxCell id="UrR3aW9NItK5d_8ZwAaM-84" value="" style="endArrow=none;html=1;rounded=0;exitX=0;exitY=0.5;exitDx=0;exitDy=0;entryX=1;entryY=0.5;entryDx=0;entryDy=0;" edge="1" parent="1" source="UrR3aW9NItK5d_8ZwAaM-82" target="UrR3aW9NItK5d_8ZwAaM-82">
          <mxGeometry width="50" height="50" relative="1" as="geometry">
            <mxPoint x="520" y="1720" as="sourcePoint" />
            <mxPoint x="731" y="1520" as="targetPoint" />
          </mxGeometry>
        </mxCell>
        <mxCell id="UrR3aW9NItK5d_8ZwAaM-85" value="" style="endArrow=none;html=1;rounded=0;exitX=0;exitY=0.5;exitDx=0;exitDy=0;entryX=1;entryY=0.5;entryDx=0;entryDy=0;" edge="1" parent="1" source="UrR3aW9NItK5d_8ZwAaM-56" target="UrR3aW9NItK5d_8ZwAaM-56">
          <mxGeometry width="50" height="50" relative="1" as="geometry">
            <mxPoint x="630" y="1070" as="sourcePoint" />
            <mxPoint x="680" y="1020" as="targetPoint" />
          </mxGeometry>
        </mxCell>
        <mxCell id="UrR3aW9NItK5d_8ZwAaM-86" value="" style="endArrow=none;html=1;rounded=0;exitX=0;exitY=0.5;exitDx=0;exitDy=0;entryX=1;entryY=0.5;entryDx=0;entryDy=0;" edge="1" parent="1" source="UrR3aW9NItK5d_8ZwAaM-28" target="UrR3aW9NItK5d_8ZwAaM-28">
          <mxGeometry width="50" height="50" relative="1" as="geometry">
            <mxPoint x="630" y="550" as="sourcePoint" />
            <mxPoint x="680" y="500" as="targetPoint" />
          </mxGeometry>
        </mxCell>
        <mxCell id="UrR3aW9NItK5d_8ZwAaM-90" value="condition: {kein Lagerplatz gefunden}&lt;div&gt;extension point: manuell nach Lagerplatz suchen&lt;/div&gt;" style="whiteSpace=wrap;html=1;" vertex="1" parent="1">
          <mxGeometry x="400" y="1610" width="270" height="40" as="geometry" />
        </mxCell>
        <mxCell id="UrR3aW9NItK5d_8ZwAaM-103" style="edgeStyle=orthogonalEdgeStyle;rounded=0;orthogonalLoop=1;jettySize=auto;html=1;entryX=0;entryY=0.5;entryDx=0;entryDy=0;" edge="1" parent="1" source="UrR3aW9NItK5d_8ZwAaM-97" target="UrR3aW9NItK5d_8ZwAaM-98">
          <mxGeometry relative="1" as="geometry" />
        </mxCell>
        <mxCell id="UrR3aW9NItK5d_8ZwAaM-105" style="edgeStyle=orthogonalEdgeStyle;rounded=0;orthogonalLoop=1;jettySize=auto;html=1;entryX=0;entryY=0.5;entryDx=0;entryDy=0;" edge="1" parent="1" source="UrR3aW9NItK5d_8ZwAaM-97" target="UrR3aW9NItK5d_8ZwAaM-99">
          <mxGeometry relative="1" as="geometry">
            <Array as="points">
              <mxPoint x="260" y="1790" />
              <mxPoint x="260" y="1880" />
            </Array>
          </mxGeometry>
        </mxCell>
        <mxCell id="UrR3aW9NItK5d_8ZwAaM-110" style="edgeStyle=orthogonalEdgeStyle;rounded=0;orthogonalLoop=1;jettySize=auto;html=1;" edge="1" parent="1" source="UrR3aW9NItK5d_8ZwAaM-97" target="UrR3aW9NItK5d_8ZwAaM-83">
          <mxGeometry relative="1" as="geometry">
            <Array as="points">
              <mxPoint x="260" y="1790" />
              <mxPoint x="260" y="1740" />
            </Array>
          </mxGeometry>
        </mxCell>
        <mxCell id="UrR3aW9NItK5d_8ZwAaM-97" value="Materialverwalter" style="shape=umlActor;verticalLabelPosition=bottom;verticalAlign=top;html=1;outlineConnect=0;" vertex="1" parent="1">
          <mxGeometry x="40" y="1760" width="30" height="60" as="geometry" />
        </mxCell>
        <mxCell id="UrR3aW9NItK5d_8ZwAaM-98" value="Buchung ungeplanter Entnahmen" style="ellipse;whiteSpace=wrap;html=1;rotation=0;" vertex="1" parent="1">
          <mxGeometry x="440" y="1750" width="120" height="80" as="geometry" />
        </mxCell>
        <mxCell id="UrR3aW9NItK5d_8ZwAaM-101" style="edgeStyle=orthogonalEdgeStyle;rounded=0;orthogonalLoop=1;jettySize=auto;html=1;entryX=0.5;entryY=1;entryDx=0;entryDy=0;" edge="1" parent="1" source="UrR3aW9NItK5d_8ZwAaM-99" target="UrR3aW9NItK5d_8ZwAaM-83">
          <mxGeometry relative="1" as="geometry" />
        </mxCell>
        <mxCell id="UrR3aW9NItK5d_8ZwAaM-102" value="include" style="edgeLabel;html=1;align=center;verticalAlign=middle;resizable=0;points=[];" vertex="1" connectable="0" parent="UrR3aW9NItK5d_8ZwAaM-101">
          <mxGeometry x="-0.2725" y="-3" relative="1" as="geometry">
            <mxPoint x="-21" y="-3" as="offset" />
          </mxGeometry>
        </mxCell>
        <mxCell id="UrR3aW9NItK5d_8ZwAaM-99" value="umlagern von Waren" style="ellipse;whiteSpace=wrap;html=1;rotation=0;" vertex="1" parent="1">
          <mxGeometry x="440" y="1840" width="120" height="80" as="geometry" />
        </mxCell>
        <mxCell id="UrR3aW9NItK5d_8ZwAaM-112" value="Aufgabe 4" style="text;html=1;align=center;verticalAlign=middle;resizable=0;points=[];autosize=1;strokeColor=none;fillColor=none;" vertex="1" parent="1">
          <mxGeometry y="1988" width="80" height="30" as="geometry" />
        </mxCell>
        <mxCell id="UrR3aW9NItK5d_8ZwAaM-113" value="" style="rounded=0;whiteSpace=wrap;html=1;fillColor=none;" vertex="1" parent="1">
          <mxGeometry x="340" y="1970" width="420" height="600" as="geometry" />
        </mxCell>
        <mxCell id="UrR3aW9NItK5d_8ZwAaM-150" style="edgeStyle=orthogonalEdgeStyle;rounded=0;orthogonalLoop=1;jettySize=auto;html=1;entryX=0;entryY=0.5;entryDx=0;entryDy=0;" edge="1" parent="1" source="UrR3aW9NItK5d_8ZwAaM-114" target="UrR3aW9NItK5d_8ZwAaM-116">
          <mxGeometry relative="1" as="geometry">
            <Array as="points">
              <mxPoint x="40" y="2140" />
              <mxPoint x="520" y="2140" />
            </Array>
          </mxGeometry>
        </mxCell>
        <mxCell id="UrR3aW9NItK5d_8ZwAaM-114" value="Sender" style="shape=umlActor;verticalLabelPosition=bottom;verticalAlign=top;html=1;outlineConnect=0;" vertex="1" parent="1">
          <mxGeometry x="25" y="2040" width="30" height="60" as="geometry" />
        </mxCell>
        <mxCell id="UrR3aW9NItK5d_8ZwAaM-115" value="Erfassung der daten vom sender" style="ellipse;whiteSpace=wrap;html=1;" vertex="1" parent="1">
          <mxGeometry x="380" y="1988" width="120" height="80" as="geometry" />
        </mxCell>
        <mxCell id="UrR3aW9NItK5d_8ZwAaM-116" value="Abholung der Sendung beim Sender" style="ellipse;whiteSpace=wrap;html=1;" vertex="1" parent="1">
          <mxGeometry x="520" y="2088" width="120" height="80" as="geometry" />
        </mxCell>
        <mxCell id="UrR3aW9NItK5d_8ZwAaM-119" value="Rechnungserstellung der Kurierfahr" style="ellipse;whiteSpace=wrap;html=1;" vertex="1" parent="1">
          <mxGeometry x="380" y="2480" width="120" height="80" as="geometry" />
        </mxCell>
        <mxCell id="UrR3aW9NItK5d_8ZwAaM-125" value="condition: {pers. Ablieferung vom Auftraggeber gefordert}&lt;div&gt;extension point:&amp;nbsp;&lt;span style=&quot;background-color: initial;&quot;&gt;Persönliche Übergabe der Sendung beim Empfänger&lt;/span&gt;&lt;/div&gt;" style="rounded=0;whiteSpace=wrap;html=1;" vertex="1" parent="1">
          <mxGeometry x="480" y="2228" width="260" height="60" as="geometry" />
        </mxCell>
        <mxCell id="UrR3aW9NItK5d_8ZwAaM-126" value="Ablieferung der Sendung beim Empfänger&lt;div&gt;&lt;br&gt;&lt;div&gt;Persönliche Übergabe der Sendung beim Empfänger&lt;br&gt;&lt;/div&gt;&lt;/div&gt;" style="shape=lineEllipse;perimeter=ellipsePerimeter;whiteSpace=wrap;html=1;backgroundOutline=1;" vertex="1" parent="1">
          <mxGeometry x="380" y="2278" width="120" height="180" as="geometry" />
        </mxCell>
        <mxCell id="UrR3aW9NItK5d_8ZwAaM-133" style="edgeStyle=orthogonalEdgeStyle;rounded=0;orthogonalLoop=1;jettySize=auto;html=1;" edge="1" parent="1" source="UrR3aW9NItK5d_8ZwAaM-129" target="UrR3aW9NItK5d_8ZwAaM-115">
          <mxGeometry relative="1" as="geometry">
            <Array as="points">
              <mxPoint x="10" y="2530" />
              <mxPoint x="10" y="2140" />
              <mxPoint x="440" y="2140" />
            </Array>
          </mxGeometry>
        </mxCell>
        <mxCell id="UrR3aW9NItK5d_8ZwAaM-134" style="edgeStyle=orthogonalEdgeStyle;rounded=0;orthogonalLoop=1;jettySize=auto;html=1;entryX=0;entryY=0.5;entryDx=0;entryDy=0;" edge="1" parent="1" source="UrR3aW9NItK5d_8ZwAaM-129" target="UrR3aW9NItK5d_8ZwAaM-116">
          <mxGeometry relative="1" as="geometry">
            <Array as="points">
              <mxPoint x="10" y="2530" />
              <mxPoint x="10" y="2140" />
              <mxPoint x="520" y="2140" />
            </Array>
          </mxGeometry>
        </mxCell>
        <mxCell id="UrR3aW9NItK5d_8ZwAaM-135" style="edgeStyle=orthogonalEdgeStyle;rounded=0;orthogonalLoop=1;jettySize=auto;html=1;entryX=0;entryY=0.5;entryDx=0;entryDy=0;" edge="1" parent="1" source="UrR3aW9NItK5d_8ZwAaM-129" target="UrR3aW9NItK5d_8ZwAaM-119">
          <mxGeometry relative="1" as="geometry">
            <Array as="points">
              <mxPoint x="140" y="2520" />
              <mxPoint x="140" y="2520" />
            </Array>
          </mxGeometry>
        </mxCell>
        <mxCell id="UrR3aW9NItK5d_8ZwAaM-139" style="edgeStyle=orthogonalEdgeStyle;rounded=0;orthogonalLoop=1;jettySize=auto;html=1;entryX=0;entryY=0.5;entryDx=0;entryDy=0;" edge="1" parent="1" source="UrR3aW9NItK5d_8ZwAaM-129" target="UrR3aW9NItK5d_8ZwAaM-126">
          <mxGeometry relative="1" as="geometry">
            <Array as="points">
              <mxPoint x="40" y="2368" />
            </Array>
          </mxGeometry>
        </mxCell>
        <mxCell id="UrR3aW9NItK5d_8ZwAaM-129" value="Kurierdienst&lt;div&gt;&lt;br&gt;&lt;/div&gt;" style="shape=umlActor;verticalLabelPosition=bottom;verticalAlign=top;html=1;outlineConnect=0;" vertex="1" parent="1">
          <mxGeometry x="25" y="2490" width="30" height="60" as="geometry" />
        </mxCell>
        <mxCell id="UrR3aW9NItK5d_8ZwAaM-157" style="edgeStyle=orthogonalEdgeStyle;rounded=0;orthogonalLoop=1;jettySize=auto;html=1;dashed=1;" edge="1" parent="1" source="UrR3aW9NItK5d_8ZwAaM-118" target="UrR3aW9NItK5d_8ZwAaM-126">
          <mxGeometry relative="1" as="geometry" />
        </mxCell>
        <mxCell id="UrR3aW9NItK5d_8ZwAaM-158" value="extend" style="edgeLabel;html=1;align=center;verticalAlign=middle;resizable=0;points=[];" vertex="1" connectable="0" parent="UrR3aW9NItK5d_8ZwAaM-157">
          <mxGeometry x="-0.135" y="-1" relative="1" as="geometry">
            <mxPoint as="offset" />
          </mxGeometry>
        </mxCell>
        <mxCell id="UrR3aW9NItK5d_8ZwAaM-118" value="Persönliche Übergabe der Sendung beim Empfänger" style="ellipse;whiteSpace=wrap;html=1;" vertex="1" parent="1">
          <mxGeometry x="380" y="2158" width="120" height="80" as="geometry" />
        </mxCell>
        <mxCell id="UrR3aW9NItK5d_8ZwAaM-142" value="Empfänger" style="shape=umlActor;verticalLabelPosition=bottom;verticalAlign=top;html=1;outlineConnect=0;" vertex="1" parent="1">
          <mxGeometry x="25" y="2250" width="30" height="60" as="geometry" />
        </mxCell>
        <mxCell id="UrR3aW9NItK5d_8ZwAaM-147" style="edgeStyle=orthogonalEdgeStyle;rounded=0;orthogonalLoop=1;jettySize=auto;html=1;entryX=0;entryY=0.5;entryDx=0;entryDy=0;" edge="1" parent="1" source="UrR3aW9NItK5d_8ZwAaM-142" target="UrR3aW9NItK5d_8ZwAaM-126">
          <mxGeometry relative="1" as="geometry">
            <Array as="points">
              <mxPoint x="200" y="2280" />
              <mxPoint x="200" y="2368" />
            </Array>
          </mxGeometry>
        </mxCell>
      </root>
    </mxGraphModel>
  </diagram>
</mxfile>
